<?xml version="1.0" encoding="utf-8"?>
<!-- Generator: Adobe Illustrator 19.1.0, SVG Export Plug-In . SVG Version: 6.00 Build 0)  -->
<svg version="1.1" id="Layer_1" xmlns="http://www.w3.org/2000/svg" xmlns:xlink="http://www.w3.org/1999/xlink" x="0px" y="0px"
	 viewBox="0 0 72.9 77.7" style="enable-background:new 0 0 72.9 77.7;" xml:space="preserve">
<style type="text/css">
	.st0{fill:none;}
	.st1{fill:#FEF7A2;}
	.st2{fill:#ABC26F;}
	.st3{fill:#64A3C7;}
	.st4{fill:#C6AB63;}
	.st5{fill:#F05D4A;}
	.st6{fill:#B94534;}
	.st7{fill:#FFFFFF;}
	.st8{fill:#FFFFFF;stroke:#000000;stroke-width:4;stroke-miterlimit:10;}
	.st9{fill:#9B9B9B;}
	.st10{fill:none;stroke:#F05D4A;stroke-width:2;stroke-miterlimit:10;}
	.st11{fill:#F05D4A;stroke:#F05D4A;stroke-width:0.25;stroke-miterlimit:10;}
	.st12{fill:none;stroke:#FFFFFF;stroke-width:3;stroke-linecap:round;stroke-linejoin:round;stroke-miterlimit:10;}
</style>
<path class="st5" d="M49.1,39.5c0,7-5.7,12.7-12.7,12.7s-12.7-5.7-12.7-12.7s5.7-12.7,12.7-12.7S49.1,32.5,49.1,39.5z M69,34
	l-7.9-0.4c-0.6-2.7-1.7-5.2-3.1-7.5l5.3-5.8c0.5-0.5,0.5-1.3,0-1.8l-6-6c-0.5-0.5-1.3-0.5-1.8,0L49.8,18c-2.3-1.4-4.8-2.5-7.5-3.1
	L41.9,7c0-0.7-0.6-1.3-1.3-1.3h-8.4C31.5,5.7,31,6.3,31,7l-0.4,7.9c-2.7,0.6-5.2,1.7-7.5,3.1l-5.8-5.3c-0.5-0.5-1.3-0.5-1.8,0l-6,6
	c-0.5,0.5-0.5,1.3,0,1.8l5.3,5.8c-1.4,2.3-2.5,4.8-3.1,7.5L3.9,34c-0.7,0-1.3,0.6-1.3,1.3v8.4c0,0.7,0.6,1.3,1.3,1.3l7.9,0.4
	c0.6,2.7,1.7,5.2,3.1,7.5l-5.3,5.8c-0.5,0.5-0.5,1.3,0,1.8l6,6c0.5,0.5,1.3,0.5,1.8,0l5.8-5.3c2.3,1.4,4.8,2.5,7.5,3.1l0.4,7.9
	c0,0.7,0.6,1.3,1.3,1.3h8.4c0.7,0,1.3-0.6,1.3-1.3l0.4-7.9c2.7-0.6,5.2-1.7,7.5-3.1l5.8,5.3c0.5,0.5,1.3,0.5,1.8,0l6-6
	c0.5-0.5,0.5-1.3,0-1.8L58,52.8c1.4-2.3,2.5-4.8,3.1-7.5L69,45c0.7,0,1.3-0.6,1.3-1.3v-8.4C70.2,34.6,69.7,34,69,34z"/>
</svg>
