<?xml version="1.0" encoding="utf-8"?>
<!-- Generator: Adobe Illustrator 19.1.0, SVG Export Plug-In . SVG Version: 6.00 Build 0)  -->
<svg version="1.1" id="Layer_1" xmlns="http://www.w3.org/2000/svg" xmlns:xlink="http://www.w3.org/1999/xlink" x="0px" y="0px"
	 viewBox="0 0 48.3 41.5" style="enable-background:new 0 0 48.3 41.5;" xml:space="preserve">
<style type="text/css">
	.st0{fill:none;}
	.st1{fill:#FEF7A2;}
	.st2{fill:#ABC26F;}
	.st3{fill:#64A3C7;}
	.st4{fill:#C6AB63;}
	.st5{fill:#F05D4A;}
	.st6{fill:#B94534;}
	.st7{fill:#FFFFFF;}
	.st8{fill:#FFFFFF;stroke:#000000;stroke-width:4;stroke-miterlimit:10;}
	.st9{fill:#9B9B9B;}
	.st10{fill:none;stroke:#F05D4A;stroke-width:2;stroke-miterlimit:10;}
	.st11{fill:#F05D4A;stroke:#F05D4A;stroke-width:0.25;stroke-miterlimit:10;}
	.st12{fill:none;stroke:#FFFFFF;stroke-width:3;stroke-linecap:round;stroke-linejoin:round;stroke-miterlimit:10;}
</style>
<g>
	<g>
		<path class="st5" d="M31.2,24.2c-1.7,2.3-4.2,3.7-7,3.7c-2.8,0-5.3-1.4-7-3.7c-3.7,0.2-6.7,3.3-6.7,7.1v1.3c0,1.7,1.4,3,3,3h21.3
			c1.7,0,3-1.4,3-3v-1.3C37.9,27.5,34.9,24.4,31.2,24.2z"/>
		<ellipse class="st5" cx="24.2" cy="16.7" rx="6.9" ry="8.6"/>
	</g>
	<g>
		<path class="st10" d="M43.3,27v-1.2c0-3.3-2.6-6-5.9-6.2c-0.4,0.5-0.8,0.9-1.3,1.3"/>
		<path class="st10" d="M31.2,5.6c3.3,0,6,3.4,6,7.5c0,1.9-0.5,3.6-1.5,4.9"/>
	</g>
	<g>
		<path class="st10" d="M5.6,27v-1.2c0-3.3,2.6-6,5.9-6.2c0.4,0.5,0.8,0.9,1.3,1.3"/>
		<path class="st10" d="M17.7,5.6c-3.3,0-6,3.4-6,7.5c0,1.9,0.5,3.6,1.5,4.9"/>
	</g>
</g>
</svg>
