<?xml version="1.0" encoding="utf-8"?>
<!-- Generator: Adobe Illustrator 19.1.0, SVG Export Plug-In . SVG Version: 6.00 Build 0)  -->
<svg version="1.1" id="Layer_1" xmlns="http://www.w3.org/2000/svg" xmlns:xlink="http://www.w3.org/1999/xlink" x="0px" y="0px"
	 viewBox="0 0 35.7 30" style="enable-background:new 0 0 35.7 30;" xml:space="preserve">
<style type="text/css">
	.st0{fill:none;}
	.st1{fill:#FEF7A2;}
	.st2{fill:#ABC26F;}
	.st3{fill:#64A3C7;}
	.st4{fill:#C6AB63;}
	.st5{fill:#F05D4A;}
	.st6{fill:#B94534;}
	.st7{fill:#FFFFFF;}
	.st8{fill:#FFFFFF;stroke:#000000;stroke-width:4;stroke-miterlimit:10;}
	.st9{fill:#9B9B9B;}
	.st10{fill:none;stroke:#F05D4A;stroke-width:2;stroke-miterlimit:10;}
	.st11{fill:#F05D4A;stroke:#F05D4A;stroke-width:0.25;stroke-miterlimit:10;}
	.st12{fill:none;stroke:#FFFFFF;stroke-width:3;stroke-linecap:round;stroke-linejoin:round;stroke-miterlimit:10;}
</style>
<path class="st5" d="M30.8,21.3h-26c-1.1,0-2-0.9-2-2V4.7c0-1.1,0.9-2,2-2h26c1.1,0,2,0.9,2,2v14.6C32.8,20.4,32,21.3,30.8,21.3z"/>
<path class="st5" d="M28.2,27.1H7.5c-0.5,0-0.9-0.4-0.9-0.9v0c0-0.5,0.4-0.9,0.9-0.9h20.6c0.5,0,0.9,0.4,0.9,0.9v0
	C29.1,26.7,28.7,27.1,28.2,27.1z"/>
</svg>
