<?xml version="1.0" encoding="utf-8"?>
<!-- Generator: Adobe Illustrator 19.1.0, SVG Export Plug-In . SVG Version: 6.00 Build 0)  -->
<svg version="1.1" id="Layer_1" xmlns="http://www.w3.org/2000/svg" xmlns:xlink="http://www.w3.org/1999/xlink" x="0px" y="0px"
	 viewBox="0 0 31.4 31.4" style="enable-background:new 0 0 31.4 31.4;" xml:space="preserve">
<style type="text/css">
	.st0{fill:none;}
	.st1{fill:#FEF7A2;}
	.st2{fill:#ABC26F;}
	.st3{fill:#64A3C7;}
	.st4{fill:#C6AB63;}
	.st5{fill:#F05D4A;}
	.st6{fill:#B94534;}
	.st7{fill:#FFFFFF;}
	.st8{fill:#FFFFFF;stroke:#000000;stroke-width:4;stroke-miterlimit:10;}
	.st9{fill:#9B9B9B;}
	.st10{fill:none;stroke:#F05D4A;stroke-width:2;stroke-miterlimit:10;}
	.st11{fill:#F05D4A;stroke:#F05D4A;stroke-width:0.25;stroke-miterlimit:10;}
	.st12{fill:none;stroke:#FFFFFF;stroke-width:3;stroke-linecap:round;stroke-linejoin:round;stroke-miterlimit:10;}
</style>
<g id="snow">
	<line class="st10" x1="15.7" y1="4.5" x2="15.7" y2="27"/>
	<line class="st10" x1="4.5" y1="15.7" x2="27" y2="15.7"/>
	<line class="st10" x1="8.2" y1="23.2" x2="23.2" y2="8.2"/>
	<line class="st10" x1="8.2" y1="8.2" x2="23.3" y2="23.3"/>
	<polyline class="st10" points="12,0.7 15.7,4.5 19.5,0.7 	"/>
	<polyline class="st10" points="30.7,12 27,15.7 30.7,19.5 	"/>
	<polyline class="st10" points="12,30.7 15.7,27 19.5,30.7 	"/>
	<polyline class="st10" points="0.7,12 4.5,15.7 0.7,19.5 	"/>
	<polyline class="st10" points="4.5,8.2 8.2,8.2 8.2,4.5 	"/>
	<polyline class="st10" points="23.2,4.5 23.2,8.2 27,8.2 	"/>
	<polyline class="st10" points="4.5,23.2 8.2,23.2 8.2,27 	"/>
	<polyline class="st10" points="23.2,27 23.2,23.2 27,23.2 	"/>
</g>
</svg>
