<?xml version="1.0" encoding="utf-8"?>
<!-- Generator: Adobe Illustrator 19.1.0, SVG Export Plug-In . SVG Version: 6.00 Build 0)  -->
<svg version="1.1" id="Layer_1" xmlns="http://www.w3.org/2000/svg" xmlns:xlink="http://www.w3.org/1999/xlink" x="0px" y="0px"
	 viewBox="0 0 72.9 77.7" style="enable-background:new 0 0 72.9 77.7;" xml:space="preserve">
<style type="text/css">
	.st0{fill:none;}
	.st1{fill:#FEF7A2;}
	.st2{fill:#ABC26F;}
	.st3{fill:#64A3C7;}
	.st4{fill:#C6AB63;}
	.st5{fill:#F05D4A;}
	.st6{fill:#B94534;}
	.st7{fill:#FFFFFF;}
	.st8{fill:#FFFFFF;stroke:#000000;stroke-width:4;stroke-miterlimit:10;}
	.st9{fill:#9B9B9B;}
	.st10{fill:none;stroke:#F05D4A;stroke-width:2;stroke-miterlimit:10;}
	.st11{fill:#F05D4A;stroke:#F05D4A;stroke-width:0.25;stroke-miterlimit:10;}
	.st12{fill:none;stroke:#FFFFFF;stroke-width:3;stroke-linecap:round;stroke-linejoin:round;stroke-miterlimit:10;}
</style>
<path class="st5" d="M65.7,9L16.9,9c-1.7,0-3.2,1.4-3.2,3.2l0,44.6c0,0.6-0.5,1.1-1.1,1.1h0c-0.6,0-1.1-0.5-1.1-1.1V26l-5.4,0
	C4.4,26,3,27.4,3,29.2v32.4c0,3.8,3.1,6.9,6.9,6.9h52c3.8,0,6.9-3.1,6.9-6.9V12.2C68.8,10.4,67.4,9,65.7,9z"/>
<line class="st12" x1="30.6" y1="21.8" x2="58.7" y2="21.8"/>
<line class="st12" x1="23.6" y1="32.4" x2="58.7" y2="32.4"/>
<line class="st12" x1="23.6" y1="42.9" x2="58.7" y2="42.9"/>
<line class="st12" x1="23.6" y1="53.5" x2="58.7" y2="53.5"/>
</svg>
