<?xml version="1.0" encoding="utf-8"?>
<!-- Generator: Adobe Illustrator 19.1.0, SVG Export Plug-In . SVG Version: 6.00 Build 0)  -->
<svg version="1.1" id="Layer_1" xmlns="http://www.w3.org/2000/svg" xmlns:xlink="http://www.w3.org/1999/xlink" x="0px" y="0px"
	 viewBox="0 0 1308 400" style="enable-background:new 0 0 1308 400;" xml:space="preserve">
<style type="text/css">
	.st0{fill:none;}
	.st1{fill:#FEF7A2;}
	.st2{fill:#ABC26F;}
	.st3{fill:#64A3C7;}
	.st4{fill:#C6AB63;}
	.st5{fill:#F05D4A;}
	.st6{fill:#B94534;}
	.st7{fill:#FFFFFF;}
	.st8{fill:#FFFFFF;stroke:#000000;stroke-width:4;stroke-miterlimit:10;}
</style>
<path class="st7" d="M152.4,217l31.7,19.3l-31.7,19L131,242.5c0,0-4.9-3-4.6-6.4c0.3-3.4,1.8-5,7-7.8
	C138.5,225.5,152.4,217,152.4,217z"/>
<path class="st7" d="M193.4,241.5l74.5,44.6l-20.6,12.4c0,0-3.1,3.1-11.1,3.4c-9.5,0-16.5-6.6-16.5-6.6l-58.3-34.4L193.4,241.5z"/>
<path class="st7" d="M246.2,261.7l74.2-44.8l22.2,13.5c0,0,3.1,1.8,3.6,3.6c0.5,1.8,0.5,5-2.6,7.4s-66.3,39.1-66.3,39.1L246.2,261.7
	z"/>
<g>
	<path class="st7" d="M304.3,118.2c0,13-3.6,25.1-9.9,35.4l-58.2,91.1l-58.2-91.1c-6.3-10.3-9.9-22.5-9.9-35.5
		c0-37.6,30.5-68.1,68.1-68.1C273.8,50.1,304.3,80.6,304.3,118.2z M236.2,74c-27.1,0-49.1,22-49.1,49.1s22,49.1,49.1,49.1
		s49.1-22,49.1-49.1S263.4,74,236.2,74z"/>
	<g>
		<path class="st7" d="M244.3,116.8c-2.1,0-3.8,1.7-3.8,3.8c0,2.1,1.7,3.8,3.8,3.8c2.1,0,3.8-1.7,3.8-3.8
			C248.1,118.5,246.4,116.8,244.3,116.8z"/>
		<path class="st7" d="M236.2,94.6l-33,29.6l3.8,5.1l4.3-2.6v25h17.9v-16.3h13.9v16.3h18.8v-24.4l2.2,1.3l5.1-4.5L236.2,94.6z
			 M244.3,128.7c-3.5,0-6.6-2.3-7.6-5.5h-6.5v3h-2v-2.7h-1l-1,1h-2v1.8h-2.4v-3h-1.6v-5.3h16.6c1.1-3.1,4.1-5.4,7.6-5.4
			c4.5,0,8.1,3.6,8.1,8.1C252.4,125.1,248.8,128.7,244.3,128.7z"/>
	</g>
</g>
<g>
	<g>
		<path class="st7" d="M492.4,191.8c0.4,26.3-15.6,52.9-52,52.9c-12.8,0-28.1,0-40.9,0v-104c12.8,0,28.1,0,40.9,0
			C476,140.7,491.9,166.1,492.4,191.8z M418.9,225.8h21.4c23.6,0,33-17.2,32.5-34.2c-0.4-16.2-10-32.4-32.5-32.4h-21.4V225.8z"/>
		<path class="st7" d="M574.8,208.2c0,21.1-14.4,38.2-38.2,38.2s-38-17.1-38-38.2c0-21,14.6-38.2,37.9-38.2S574.8,187.2,574.8,208.2
			z M516.7,208.2c0,11.1,6.7,21.5,19.9,21.5c13.2,0,19.9-10.4,19.9-21.5c0-11-7.7-21.7-19.9-21.7
			C523.6,186.5,516.7,197.2,516.7,208.2z"/>
		<path class="st7" d="M600.7,171.4l1.3,8.5c5.6-9.1,13.2-10.4,20.7-10.4c7.6,0,14.9,3,18.9,7l-8.2,15.8c-3.7-3.1-7.1-4.8-13.1-4.8
			c-9.5,0-18.3,5.1-18.3,18.6v38.6h-18.1v-73.3H600.7z"/>
		<path class="st7" d="M693.7,244.7v-39.2c0-9.7-5.1-18.4-15-18.4c-9.8,0-15.6,8.8-15.6,18.4v39.2H645v-73.4h16.8l1.3,8.9
			c3.9-7.4,12.3-10.1,19.3-10.1c8.8,0,17.5,3.6,21.7,13.7c6.5-10.4,15-13.4,24.5-13.4c20.8,0,31.1,12.8,31.1,34.8v39.5h-18.1v-39.5
			c0-9.7-4-17.8-13.8-17.8s-15.9,8.5-15.9,18.1v39.2H693.7z"/>
		<path class="st7" d="M867.8,231.6c-10.7,10.6-24.5,15.5-39.5,15.5c-38.6,0-55-26.6-55.1-53.7c-0.1-27.2,17.5-54.8,55.1-54.8
			c14.1,0,27.5,5.4,38.2,15.9l-13.1,12.6c-6.8-6.7-16.1-9.8-25.1-9.8c-25.1,0-36,18.7-35.8,36.1c0.1,17.2,10.1,35.2,35.8,35.2
			c9.1,0,19.3-3.7,26.2-10.6L867.8,231.6z"/>
		<path class="st7" d="M945.3,208.2c0,21.1-14.4,38.2-38.2,38.2s-38-17.1-38-38.2c0-21,14.6-38.2,37.9-38.2S945.3,187.2,945.3,208.2
			z M887.2,208.2c0,11.1,6.7,21.5,19.9,21.5c13.2,0,19.9-10.4,19.9-21.5c0-11-7.7-21.7-19.9-21.7
			C894.1,186.5,887.2,197.2,887.2,208.2z"/>
		<path class="st7" d="M978.8,140.7v85.9h53.5v18.1h-73.1v-104H978.8z"/>
		<path class="st7" d="M1060.2,214.5c1.2,9.1,9.1,15.6,21.8,15.6c6.7,0,15.5-2.5,19.6-6.8l11.6,11.4c-7.7,8-20.4,11.9-31.5,11.9
			c-25.3,0-40.3-15.6-40.3-39.1c0-22.3,15.2-38.3,38.9-38.3c24.5,0,39.8,15.2,37,45.3H1060.2z M1100.1,199.5
			c-1.2-9.5-8.6-14.3-19-14.3c-9.8,0-17.8,4.8-20.5,14.3H1100.1z"/>
		<path class="st7" d="M1153.9,150.8v20.8h20.2v15.6h-20.4v31.7c0,7,3.9,10.4,9.5,10.4c2.8,0,6.1-0.9,8.8-2.2l5.1,15.5
			c-5.2,2.1-9.5,3-15,3.1c-15.9,0.6-26.3-8.5-26.3-26.8v-31.7h-13.7v-15.6h13.7v-18.9L1153.9,150.8z"/>
	</g>
</g>
<polyline class="st0" points="219.5,226.3 229.1,220.5 239.4,218.3 252.9,226.4 "/>
<line class="st0" x1="219.5" y1="226.3" x2="214.5" y2="218.5"/>
<polygon class="st7" points="196.5,190.3 214.5,218.5 193.7,231.2 161.4,211.8 "/>
<line class="st0" x1="252.9" y1="226.4" x2="257.9" y2="218.5"/>
<polygon class="st7" points="252.9,226.4 236.2,252.5 219.5,226.3 203.2,236.1 236.2,255.3 269.3,236.1 "/>
<polygon class="st7" points="257.9,218.5 276.3,189.9 311.2,211.4 278.4,230.5 "/>
</svg>
