<?xml version="1.0" encoding="utf-8"?>
<!-- Generator: Adobe Illustrator 19.1.0, SVG Export Plug-In . SVG Version: 6.00 Build 0)  -->
<svg version="1.1" id="Layer_1" xmlns="http://www.w3.org/2000/svg" xmlns:xlink="http://www.w3.org/1999/xlink" x="0px" y="0px"
	 viewBox="0 0 1160.1 317.9" style="enable-background:new 0 0 1160.1 317.9;" xml:space="preserve">
<style type="text/css">
	.st0{fill:none;}
	.st1{fill:#FEF7A2;}
	.st2{fill:#ABC26F;}
	.st3{fill:#64A3C7;}
	.st4{fill:#C6AB63;}
	.st5{fill:#F05D4A;}
	.st6{fill:#B94534;}
	.st7{fill:#FFFFFF;}
	.st8{fill:#FFFFFF;stroke:#000000;stroke-width:4;stroke-miterlimit:10;}
	.st9{stroke:#FFFFFF;stroke-width:4;stroke-miterlimit:10;}
</style>
<rect class="st0" width="1160.1" height="317.9"/>
<g>
	<g>
		<polygon class="st1" points="90.7,188 75.9,196.8 75.9,231.9 91.3,241.2 188.3,267.7 205.9,257.2 248.9,196.7 235.6,188.7 		"/>
		<polygon class="st2" points="120.9,168.6 87.5,190 119.8,209.3 141.4,195.4 		"/>
		<polygon class="st2" points="186,196.4 204.5,208.7 237.2,189.6 201.8,168.6 		"/>
		<polygon class="st2" points="144.4,205.5 129.3,214.3 162.3,233.5 195.3,214.3 178.2,204.2 146.2,204.2 		"/>
		<path class="st2" d="M78.5,195.2l31.7,19.3l-31.7,19l-21.4-12.8c0,0-4.9-3-4.6-6.4c0.3-3.4,1.8-5,7-7.8
			C64.6,203.7,78.5,195.2,78.5,195.2z"/>
		<path class="st3" d="M119.5,219.7l74.5,44.6l-20.6,12.4c0,0-3.1,3.1-11.1,3.4c-9.5,0-16.5-6.6-16.5-6.6L87.5,239L119.5,219.7z"/>
		<path class="st4" d="M172.2,239.9l74.2-44.8l22.2,13.5c0,0,3.1,1.8,3.6,3.6s0.5,5-2.6,7.4s-66.3,39.1-66.3,39.1L172.2,239.9z"/>
		<g>
			<g>
				<path class="st5" d="M230.4,105.9c0,13-3.6,25.1-9.9,35.4l-58.2,91.1l-58.2-91.1c-6.3-10.3-9.9-22.5-9.9-35.5
					c0-37.6,30.5-68.1,68.1-68.1C199.9,37.9,230.4,68.3,230.4,105.9z"/>
				<circle class="st6" cx="162.3" cy="105.9" r="49.1"/>
			</g>
			<polygon class="st7" points="129.3,107 133.1,112.1 137.3,109.5 137.3,134.5 155.3,134.5 155.3,118.1 169.1,118.1 169.1,134.5 
				187.9,134.5 187.9,110.1 190.2,111.4 195.3,107 162.3,77.4 			"/>
			<path class="st6" d="M170.4,95.3c-3.5,0-6.5,2.2-7.6,5.4h-16.6v5.3h1.6v3h2.4v-1.8h2l1-1h1v2.7h2v-3h6.5c1,3.2,4.1,5.5,7.6,5.5
				c4.5,0,8.1-3.6,8.1-8.1S174.8,95.3,170.4,95.3z M170.4,107.2c-2.1,0-3.8-1.7-3.8-3.8s1.7-3.8,3.8-3.8c2.1,0,3.8,1.7,3.8,3.8
				S172.5,107.2,170.4,107.2z"/>
		</g>
	</g>
	<g>
		<g>
			<path class="st6" d="M418.4,170c0.4,26.3-15.6,52.9-52,52.9c-12.8,0-28.1,0-40.9,0v-104c12.8,0,28.1,0,40.9,0
				C402.1,118.9,418,144.3,418.4,170z M345,204h21.4c23.6,0,33-17.2,32.5-34.2c-0.4-16.2-10-32.4-32.5-32.4H345V204z"/>
			<path class="st6" d="M500.9,186.3c0,21.1-14.4,38.2-38.2,38.2s-38-17.1-38-38.2c0-21,14.6-38.2,37.9-38.2
				S500.9,165.4,500.9,186.3z M442.8,186.3c0,11.1,6.7,21.5,19.9,21.5c13.2,0,19.9-10.4,19.9-21.5c0-11-7.7-21.7-19.9-21.7
				C449.6,164.6,442.8,175.3,442.8,186.3z"/>
			<path class="st6" d="M526.8,149.6l1.3,8.5c5.6-9.1,13.2-10.4,20.7-10.4c7.6,0,14.9,3,18.9,7l-8.2,15.8c-3.7-3.1-7.1-4.8-13.1-4.8
				c-9.5,0-18.3,5.1-18.3,18.6v38.6H510v-73.3H526.8z"/>
			<path class="st6" d="M619.8,222.9v-39.2c0-9.7-5.1-18.4-15-18.4c-9.8,0-15.6,8.8-15.6,18.4v39.2h-18.1v-73.4h16.8l1.3,8.9
				c3.9-7.4,12.3-10.1,19.3-10.1c8.8,0,17.5,3.6,21.7,13.7c6.5-10.4,15-13.4,24.5-13.4c20.8,0,31.1,12.8,31.1,34.8v39.5h-18.1v-39.5
				c0-9.7-4-17.8-13.8-17.8s-15.9,8.5-15.9,18.1v39.2H619.8z"/>
			<path class="st5" d="M793.8,209.8c-10.7,10.6-24.5,15.5-39.5,15.5c-38.6,0-55-26.6-55.1-53.7c-0.1-27.2,17.5-54.8,55.1-54.8
				c14.1,0,27.5,5.4,38.2,15.9l-13.1,12.6c-6.8-6.7-16.1-9.8-25.1-9.8c-25.1,0-36,18.7-35.8,36.1c0.1,17.2,10.1,35.2,35.8,35.2
				c9.1,0,19.3-3.7,26.2-10.6L793.8,209.8z"/>
			<path class="st5" d="M871.4,186.3c0,21.1-14.4,38.2-38.2,38.2s-38-17.1-38-38.2c0-21,14.6-38.2,37.9-38.2
				S871.4,165.4,871.4,186.3z M813.3,186.3c0,11.1,6.7,21.5,19.9,21.5c13.2,0,19.9-10.4,19.9-21.5c0-11-7.7-21.7-19.9-21.7
				C820.1,164.6,813.3,175.3,813.3,186.3z"/>
			<path class="st6" d="M904.9,118.9v85.9h53.5v18.1h-73.1v-104H904.9z"/>
			<path class="st6" d="M986.3,192.7c1.2,9.1,9.1,15.6,21.8,15.6c6.7,0,15.5-2.5,19.6-6.8l11.6,11.4c-7.7,8-20.4,11.9-31.5,11.9
				c-25.3,0-40.3-15.6-40.3-39.1c0-22.3,15.2-38.3,38.9-38.3c24.5,0,39.8,15.2,37,45.3H986.3z M1026.1,177.7
				c-1.2-9.5-8.6-14.3-19-14.3c-9.8,0-17.8,4.8-20.5,14.3H1026.1z"/>
			<path class="st6" d="M1079.9,129v20.8h20.2v15.6h-20.4V197c0,7,3.9,10.4,9.5,10.4c2.8,0,6.1-0.9,8.8-2.2l5.1,15.5
				c-5.2,2.1-9.5,3-15,3.1c-15.9,0.6-26.3-8.5-26.3-26.8v-31.7h-13.7v-15.6h13.7v-18.9L1079.9,129z"/>
		</g>
	</g>
</g>
</svg>
