<?xml version="1.0" encoding="utf-8"?>
<!-- Generator: Adobe Illustrator 19.1.0, SVG Export Plug-In . SVG Version: 6.00 Build 0)  -->
<svg version="1.1" id="Layer_1" xmlns="http://www.w3.org/2000/svg" xmlns:xlink="http://www.w3.org/1999/xlink" x="0px" y="0px"
	 viewBox="0 0 68.6 68.6" style="enable-background:new 0 0 68.6 68.6;" xml:space="preserve">
<style type="text/css">
	.st0{fill:none;}
	.st1{fill:#FEF7A2;}
	.st2{fill:#ABC26F;}
	.st3{fill:#64A3C7;}
	.st4{fill:#C6AB63;}
	.st5{fill:#F05D4A;}
	.st6{fill:#B94534;}
	.st7{fill:#FFFFFF;}
	.st8{fill:#FFFFFF;stroke:#000000;stroke-width:4;stroke-miterlimit:10;}
	.st9{fill:#9B9B9B;}
	.st10{fill:none;stroke:#F05D4A;stroke-width:2;stroke-miterlimit:10;}
	.st11{fill:#F05D4A;stroke:#F05D4A;stroke-width:0.25;stroke-miterlimit:10;}
</style>
<path id="call" class="st9" d="M50.2,19.4L46.9,16c-1.9-1.9-4.5-2.2-5.9-0.8L15.2,40.9c-1.4,1.4-1.1,4.1,0.8,5.9l3.4,3.4
	c1.9,1.9,2.2,4.5,0.8,5.9l-9.6,9.6c-1.9,1.9-5.8,0.5-7.2-2.6C-2.1,51,3.5,32.4,17.9,17.9C32.5,3.4,51.3-2.2,63.4,3.5
	c3,1.4,4.3,5.2,2.4,7.1l-9.6,9.7C54.8,21.7,52.1,21.3,50.2,19.4z"/>
</svg>
