<?xml version="1.0" encoding="utf-8"?>
<!-- Generator: Adobe Illustrator 19.1.0, SVG Export Plug-In . SVG Version: 6.00 Build 0)  -->
<svg version="1.1" id="Layer_1" xmlns="http://www.w3.org/2000/svg" xmlns:xlink="http://www.w3.org/1999/xlink" x="0px" y="0px"
	 viewBox="0 0 72.9 72.9" style="enable-background:new 0 0 72.9 72.9;" xml:space="preserve">
<style type="text/css">
	.st0{fill:none;}
	.st1{fill:#FEF7A2;}
	.st2{fill:#ABC26F;}
	.st3{fill:#64A3C7;}
	.st4{fill:#C6AB63;}
	.st5{fill:#F05D4A;}
	.st6{fill:#B94534;}
	.st7{fill:#FFFFFF;}
	.st8{fill:#FFFFFF;stroke:#000000;stroke-width:4;stroke-miterlimit:10;}
</style>
<path class="st5" d="M0,23.8C0,37,10.7,47.7,23.8,47.7c4.5,0,8.8-1.3,12.4-3.5l27,27c2.2,2.2,5.7,2.2,7.9,0h0c2.2-2.2,2.2-5.7,0-7.9
	l-27-27c2.2-3.6,3.5-7.9,3.5-12.4C47.7,10.7,37,0,23.8,0C10.7,0,0,10.7,0,23.8z M9.5,23.8c0-7.9,6.4-14.3,14.3-14.3
	s14.3,6.4,14.3,14.3s-6.4,14.3-14.3,14.3S9.5,31.7,9.5,23.8z"/>
</svg>
