<?xml version="1.0" encoding="utf-8"?>
<!-- Generator: Adobe Illustrator 19.1.0, SVG Export Plug-In . SVG Version: 6.00 Build 0)  -->
<svg version="1.1" id="Layer_1" xmlns="http://www.w3.org/2000/svg" xmlns:xlink="http://www.w3.org/1999/xlink" x="0px" y="0px"
	 viewBox="-283 204.1 72.9 72.9" style="enable-background:new -283 204.1 72.9 72.9;" xml:space="preserve">
<style type="text/css">
	.st0{fill:#FFFFFF;}
</style>
<path class="st0" d="M-282.9,227.9c0,13.2,10.7,23.9,23.8,23.9c4.5,0,8.8-1.3,12.4-3.5l27,27c2.2,2.2,5.7,2.2,7.9,0l0,0
	c2.2-2.2,2.2-5.7,0-7.9l-27-27c2.2-3.6,3.5-7.9,3.5-12.4c0.1-13.2-10.6-23.9-23.8-23.9C-272.2,204.1-282.9,214.8-282.9,227.9z
	 M-273.4,227.9c0-7.9,6.4-14.3,14.3-14.3s14.3,6.4,14.3,14.3c0,7.9-6.4,14.3-14.3,14.3C-267,242.2-273.4,235.8-273.4,227.9z"/>
</svg>
