<?xml version="1.0" encoding="utf-8"?>
<!-- Generator: Adobe Illustrator 19.1.0, SVG Export Plug-In . SVG Version: 6.00 Build 0)  -->
<svg version="1.1" id="Layer_1" xmlns="http://www.w3.org/2000/svg" xmlns:xlink="http://www.w3.org/1999/xlink" x="0px" y="0px"
	 viewBox="0 0 793 184.1" style="enable-background:new 0 0 793 184.1;" xml:space="preserve">
<style type="text/css">
	.st0{fill:none;}
	.st1{fill:#FEF7A2;}
	.st2{fill:#ABC26F;}
	.st3{fill:#64A3C7;}
	.st4{fill:#C6AB63;}
	.st5{fill:#F05D4A;}
	.st6{fill:#B94534;}
	.st7{fill:#FFFFFF;}
	.st8{fill:#FFFFFF;stroke:#000000;stroke-width:4;stroke-miterlimit:10;}
	.st9{fill:none;stroke:#F05D4A;stroke-width:2;stroke-miterlimit:10;}
	.st10{fill:#F05D4A;stroke:#F05D4A;stroke-width:0.25;stroke-miterlimit:10;}
</style>
<path class="st9" d="M206,152.2c0-15.3-12.5-27.8-27.8-27.8H28.8C13.5,124.4,1,136.9,1,152.2v3.1c0,15.3,12.5,27.8,27.8,27.8H160
	c0,0,18,0,194,0s287.1-10.4,358-67.6C777.1,63,788,3.5,788,3.5"/>
<circle class="st5" cx="206" cy="151.8" r="4.2"/>
<polyline class="st9" points="777.3,10.7 788,3.5 791,16 "/>
<g>
	<path class="st10" d="M43.3,148.9c-1.2-2-3.2-2.3-5.1-2.3c-2,0-5.1,0.7-5.1,3.4c0,2.2,2.3,2.7,5.2,3.2c3.3,0.6,6.7,1.2,6.7,4.9
		c0,3.8-3.9,4.8-6.7,4.8c-2.6,0-5.7-1.1-7-3.7l1.2-0.6c1,2.1,3.7,3.1,5.8,3.1s5.4-0.6,5.4-3.6c0-2.5-2.8-3.1-5.6-3.6
		c-3.1-0.6-6.3-1.2-6.3-4.4c-0.1-3.6,3.7-4.7,6.5-4.7c2.4,0,4.5,0.4,6.2,2.9L43.3,148.9z"/>
	<path class="st10" d="M51.9,146.9h-6.1v-1.2h13.6v1.2h-6.1v15.8h-1.3V146.9z"/>
	<path class="st10" d="M74.8,162.7l-1.9-4.2H62.7l-1.8,4.2h-1.4l7.6-17h1.4l7.6,17H74.8z M72.4,157.3l-4.6-10.3l-4.6,10.3H72.4z"/>
	<path class="st10" d="M91.3,162.7h-1.7l-5.9-6.4h-4.6v6.4h-1.3v-17c2.5,0,5,0,7.5,0c3.7,0,5.6,2.6,5.6,5.3c0,2.8-1.8,5.2-5.5,5.2
		L91.3,162.7z M79.1,155h6c3,0,4.3-1.7,4.3-4.1c0-2-1.3-4.1-4.2-4.1h-6.2V155z"/>
	<path class="st10" d="M98.5,146.9h-6.1v-1.2H106v1.2h-6.1v15.8h-1.3V146.9z"/>
	<path class="st10" d="M126.2,162.7v-7.7h-10.8v7.7h-1.3v-17h1.3v8.1h10.8v-8.1h1.3v17H126.2z"/>
	<path class="st10" d="M132,153.5h10v1.2h-10v6.7h10.7v1.3h-12v-17h11.7v1.2H132V153.5z"/>
	<path class="st10" d="M158.6,162.7h-1.7l-5.9-6.4h-4.6v6.4h-1.3v-17c2.5,0,5,0,7.5,0c3.7,0,5.6,2.6,5.6,5.3c0,2.8-1.8,5.2-5.5,5.2
		L158.6,162.7z M146.4,155h6c3,0,4.3-1.7,4.3-4.1c0-2-1.3-4.1-4.2-4.1h-6.2V155z"/>
	<path class="st10" d="M161.5,153.5h10v1.2h-10v6.7h10.7v1.3h-12v-17h11.7v1.2h-10.4V153.5z"/>
</g>
</svg>
