<?xml version="1.0" encoding="utf-8"?>
<!-- Generator: Adobe Illustrator 19.1.0, SVG Export Plug-In . SVG Version: 6.00 Build 0)  -->
<svg version="1.1" id="Layer_1" xmlns="http://www.w3.org/2000/svg" xmlns:xlink="http://www.w3.org/1999/xlink" x="0px" y="0px"
	 viewBox="0 0 32 26" style="enable-background:new 0 0 32 26;" xml:space="preserve">
<style type="text/css">
	.st0{fill:none;}
	.st1{fill:#FEF7A2;}
	.st2{fill:#ABC26F;}
	.st3{fill:#64A3C7;}
	.st4{fill:#C6AB63;}
	.st5{fill:#F05D4A;}
	.st6{fill:#B94534;}
	.st7{fill:#FFFFFF;}
	.st8{fill:#FFFFFF;stroke:#000000;stroke-width:4;stroke-miterlimit:10;}
	.st9{fill:#9B9B9B;}
	.st10{fill:none;stroke:#F05D4A;stroke-width:2;stroke-miterlimit:10;}
	.st11{fill:#F05D4A;stroke:#F05D4A;stroke-width:0.25;stroke-miterlimit:10;}
	.st12{fill:none;stroke:#FFFFFF;stroke-width:3;stroke-linecap:round;stroke-linejoin:round;stroke-miterlimit:10;}
</style>
<g id="wifi">
	<g>
		<circle class="st5" cx="16.1" cy="23.4" r="2.6"/>
	</g>
	<g>
		<path class="st5" d="M23.6,17.9c-0.3,0-0.5-0.1-0.7-0.3c-1.8-1.8-4.2-2.8-6.7-2.8s-4.9,1-6.7,2.8c-0.4,0.4-1,0.4-1.4,0
			c-0.4-0.4-0.4-1,0-1.4c2.2-2.2,5.1-3.4,8.1-3.4s6,1.2,8.1,3.4c0.4,0.4,0.4,1,0,1.4C24.1,17.8,23.9,17.9,23.6,17.9z"/>
	</g>
	<g>
		<path class="st5" d="M27.4,13.1c-0.3,0-0.5-0.1-0.7-0.3c-5.8-5.8-15.1-5.8-20.9,0c-0.4,0.4-1,0.4-1.4,0s-0.4-1,0-1.4
			c6.5-6.5,17.2-6.5,23.7,0c0.4,0.4,0.4,1,0,1.4C27.9,13,27.6,13.1,27.4,13.1z"/>
	</g>
	<g>
		<path class="st5" d="M31,8.2c-0.3,0-0.5-0.1-0.7-0.3C22.4,0,9.6,0,1.7,7.9c-0.4,0.4-1,0.4-1.4,0s-0.4-1,0-1.4
			C9-2.2,23-2.2,31.7,6.5c0.4,0.4,0.4,1,0,1.4C31.5,8.1,31.3,8.2,31,8.2z"/>
	</g>
</g>
</svg>
